<?xml version="1.0" encoding="UTF-8"?>
<svg xmlns="http://www.w3.org/2000/svg" width="845" height="185" viewBox="0 0 845 185" fill="none">
  <mask id="mask0_121_2122" style="mask-type:luminance" maskUnits="userSpaceOnUse" x="0" y="0" width="646" height="185">
    <path d="M645.71 0H0V184.79H645.71V0Z" fill="white"></path>
  </mask>
  <g mask="url(#mask0_121_2122)">
    <path d="M346.74 142.61C346.32 142.61 345.96 142.29 345.92 141.87C343.74 117.26 354.71 115.16 359.42 115.18C364.17 115.21 367.59 119.39 367.96 124.51C368.33 129.57 366.91 142.36 346.73 142.61M393.19 127.5C392.36 107.23 373.16 101.44 356.88 102.18C330.36 103.38 319.81 123.13 319.69 143.32V143.39C319.57 163.58 329.9 183.43 356.4 184.87C396.85 185.06 397.1 158.93 387.31 155.11C386.9 154.95 386.43 155.1 386.21 155.46C384.89 157.7 380.38 168.16 367.18 168.16C353.98 168.16 349.44 157.97 348.29 154.57C348.11 154.04 348.5 153.51 349.06 153.53C367.34 154.04 394.06 148.71 393.18 127.49" fill="#CE090F"></path>
    <path d="M472.55 133.39C472.55 98.45 439.79 97.32 422.37 107.19C422.16 107.31 421.92 107.33 421.69 107.23C416.51 105.05 408.46 102.59 399.97 102.44C399.52 102.44 399.15 102.8 399.15 103.25V181.89C399.15 182.33 399.51 182.69 399.95 182.69H424.79C425.23 182.69 425.59 182.33 425.59 181.89V121.75C425.59 121.49 425.71 121.24 425.92 121.09C432.65 116.34 446.03 117.52 446.03 132.44V131.81V169.94C446.03 176.95 451.77 182.69 458.78 182.69H475.5C476.1 182.69 476.47 182.06 476.2 181.53C473.8 176.78 472.54 171.53 472.54 166.2V133.4L472.55 133.39Z" fill="#CE090F"></path>
    <path d="M172.09 169.58C167.7 169.58 164.26 165.72 164.26 160.83C164.26 154 169.06 142 186.98 142.56C187.41 142.57 187.76 142.93 187.76 143.36V149.75C187.73 163.21 179.23 169.57 172.08 169.57M213.45 133.49C213.45 115.08 200.16 102.01 176.46 102.01C146.83 102.01 143.2 117.73 146.18 126.51C146.37 127.06 147.07 127.24 147.49 126.83C151.24 123.15 156.8 119.75 164.58 118.87C180.43 117.09 186.16 125.82 187.4 130.39C187.54 130.91 187.11 131.4 186.57 131.37C167.46 130.07 137.91 137.18 137.91 161.95C137.91 180.81 158.12 184.77 166.61 184.77H166.84C176.17 184.77 184.15 181.53 190.01 176.84C190.39 176.54 190.95 176.61 191.2 177.02C193.23 180.41 196.89 182.67 201.06 182.67H216.17C216.77 182.67 217.14 182.05 216.87 181.51C214.58 176.85 213.39 171.73 213.4 166.53L213.45 133.47V133.49Z" fill="#CE090F"></path>
    <path d="M593.42 169.58C589.03 169.58 585.59 165.72 585.59 160.83C585.59 154 590.39 142 608.31 142.56C608.74 142.57 609.09 142.93 609.09 143.36V149.75C609.05 163.21 600.56 169.57 593.41 169.57M634.73 166.41L634.78 133.5C634.78 115.09 621.49 102.02 597.79 102.02C568.16 102.02 564.53 117.74 567.51 126.52C567.7 127.07 568.4 127.25 568.82 126.84C572.57 123.16 578.13 119.76 585.91 118.88C601.76 117.1 607.49 125.83 608.73 130.4C608.87 130.92 608.44 131.41 607.91 131.38C588.8 130.08 559.25 137.19 559.25 161.96C559.25 180.82 579.46 184.78 587.95 184.78H588.18C597.51 184.78 605.49 181.54 611.35 176.85C611.73 176.55 612.29 176.62 612.54 177.03C614.57 180.42 618.23 182.68 622.4 182.68H637.52C638.11 182.68 638.48 182.06 638.22 181.53C635.93 176.82 634.73 171.65 634.74 166.4" fill="#CE090F"></path>
    <path d="M244.44 107.17C239.26 105 231.24 102.55 222.78 102.4C222.33 102.4 221.96 102.76 221.96 103.21V181.88C221.96 182.32 222.32 182.68 222.76 182.68H251.35C251.95 182.68 252.32 182.05 252.05 181.51C249.66 176.84 248.41 171.67 248.41 166.41V120.37C248.4 120.08 248.55 119.8 248.81 119.66C254.07 116.86 261.63 119.21 261.63 133.94V134.2H262.36C272.5 133.98 281.24 128.13 281.24 118.02C281.24 102.2 259.85 96.81 245.18 107.09C244.96 107.24 244.68 107.28 244.44 107.18" fill="#CE090F"></path>
    <path d="M312.71 79.62C312.71 74.01 309.28 69.73 302.96 68.63C295.8 67.39 288.07 69.46 282.62 72.75C282.26 72.97 282.15 73.43 282.35 73.79C284.92 78.62 286.26 84.01 286.26 89.49V181.88C286.26 182.32 286.62 182.68 287.06 182.68H315.66C316.25 182.68 316.64 182.06 316.37 181.54C313.97 176.85 312.72 171.66 312.72 166.38V79.62H312.71Z" fill="#CE090F"></path>
    <path d="M131.89 88.52C131.89 80.34 134.52 74.64 135.64 72.58C135.88 72.13 135.64 71.57 135.15 71.44C129.25 69.83 98.68 62.64 90.3 83.84C82.43 103.78 72.89 128.12 70.18 135.03C69.92 135.71 68.96 135.7 68.7 135.02C65.95 127.81 56.05 101.9 48.89 83.84C40.44 62.52 8.69001 69.84 2.65001 71.45C2.16001 71.58 1.92001 72.14 2.17001 72.59C3.31001 74.67 5.97001 80.39 5.97001 88.69L4.03001 165.56C4.03001 171.12 2.67001 176.6 0.0800076 181.54C-0.189992 182.06 0.200008 182.69 0.790008 182.69H20.29C20.72 182.69 21.07 182.35 21.09 181.92L23.59 99.94C23.62 99.07 24.82 98.87 25.13 99.68L52.38 170.06C52.5 170.37 52.79 170.57 53.12 170.57H73.35C73.68 170.57 73.97 170.37 74.09 170.07L102.02 99.6C102.34 98.79 103.53 99 103.56 99.87L106.04 181.93C106.05 182.36 106.41 182.7 106.84 182.7H137C137.59 182.7 137.98 182.07 137.71 181.55C135.1 176.62 133.73 171.14 133.73 165.58L131.9 88.55L131.89 88.52Z" fill="#CE090F"></path>
    <path d="M554.68 117.83C554.68 99.97 529.71 96.81 523.2 110.84C523.04 111.19 523.17 111.61 523.48 111.83C534.85 119.9 527.53 132.96 508.87 138.07C508.36 138.21 507.86 137.82 507.86 137.3V79.64C507.86 74.03 504.43 69.75 498.09 68.65C490.91 67.4 483.18 69.48 477.71 72.76C477.35 72.98 477.24 73.44 477.43 73.81C480 78.64 481.35 84.03 481.35 89.51V181.9C481.35 182.34 481.71 182.7 482.15 182.7H507.07C507.51 182.7 507.87 182.34 507.87 181.9V150.3C507.87 149.92 508.14 149.6 508.52 149.52C510.8 149.06 512.99 148.59 515.1 148.09C515.46 148 515.83 148.18 515.99 148.51L532.52 182.25C532.65 182.52 532.93 182.7 533.24 182.7H559.71C560.3 182.7 560.69 182.07 560.42 181.54L539.49 140.21C539.3 139.83 539.45 139.37 539.82 139.16C549.73 133.56 554.71 126.52 554.71 117.84" fill="#CE090F"></path>
    <path d="M637.32 106.89V109.08H639C639.76 109.08 640.21 108.54 640.21 108C640.21 107.4 639.77 106.89 639 106.89H637.32ZM639.1 105.66C640.75 105.66 641.58 106.71 641.58 108.01C641.58 108.96 641.14 109.79 640.25 110.17L641.81 112.33H640.22L638.82 110.36H637.33V112.33H635.93V105.66H639.11H639.1ZM638.56 114.55C641.67 114.55 644.09 112.13 644.09 109.02C644.09 105.91 641.67 103.49 638.56 103.49C635.45 103.49 633.03 105.9 633.03 109.02C633.03 112.14 635.48 114.55 638.56 114.55ZM638.56 101.84C642.53 101.84 645.71 105.05 645.71 109.02C645.71 112.99 642.5 116.2 638.56 116.2C634.62 116.2 631.41 112.99 631.41 109.02C631.41 105.05 634.59 101.84 638.56 101.84Z" fill="#B62025"></path>
    <path d="M405.5 75.31C405.5 73.35 403.87 72.15 402.03 72.15C400.33 72.15 398.42 73.18 398.42 75.74V75.95H400.36V75.79C400.36 74.44 401.14 73.96 402 73.96C402.86 73.96 403.49 74.49 403.49 75.38C403.49 76.27 402.82 77.64 398.39 81.14V82.66H405.57V80.86H401.55C404.4 78.53 405.5 76.94 405.5 75.32" fill="#FFEED9"></path>
    <path d="M419.82 72.15C416.79 72.15 414.53 74.43 414.53 77.49C414.53 80.55 416.79 82.82 419.82 82.82C422.85 82.82 425.1 80.54 425.1 77.49C425.1 74.44 422.84 72.15 419.82 72.15ZM419.82 80.97C417.96 80.97 416.57 79.46 416.57 77.48C416.57 75.5 417.96 74.01 419.82 74.01C421.68 74.01 423.06 75.5 423.06 77.48C423.06 79.46 421.67 80.97 419.82 80.97Z" fill="#FFEED9"></path>
    <path d="M439.26 72.15C436.23 72.15 433.97 74.43 433.97 77.49C433.97 80.55 436.23 82.82 439.26 82.82C442.29 82.82 444.54 80.54 444.54 77.49C444.54 74.44 442.28 72.15 439.26 72.15ZM439.26 80.97C437.4 80.97 436.01 79.46 436.01 77.48C436.01 75.5 437.4 74.01 439.26 74.01C441.12 74.01 442.5 75.5 442.5 77.48C442.5 79.46 441.11 80.97 439.26 80.97Z" fill="#FFEED9"></path>
    <path d="M458.33 77.4C459.5 76.85 460.01 75.97 460.01 74.96C460.01 73.2 458.36 72.15 456.6 72.15C454.84 72.15 453.22 73.19 453.22 74.94V75.16H455.14V75.09C455.14 74.35 455.82 73.89 456.62 73.89C457.36 73.89 458.04 74.3 458.04 75.06C458.04 75.77 457.36 76.6 455.37 76.6V78.31C457.37 78.31 458.32 78.9 458.32 79.76C458.32 80.54 457.61 81.03 456.58 81.03C455.8 81.03 454.89 80.73 453.82 80.2L452.99 81.86C454.22 82.52 455.46 82.82 456.6 82.82C458.8 82.82 460.32 81.68 460.32 79.86C460.32 78.63 459.58 77.82 458.34 77.39" fill="#FFEED9"></path>
    <path d="M196.27 76.6C195.03 76.25 193.97 75.93 193.97 75.03C193.97 74.34 194.62 73.86 195.85 73.86C197.18 73.86 198.08 74.38 198.08 75.47V75.54H200.02V75.32C200.02 73.21 198.17 72.14 195.87 72.14C193.57 72.14 191.97 73.26 191.97 75.04C191.97 77.01 193.64 77.79 195.66 78.36C196.89 78.72 198.29 78.98 198.29 79.93C198.29 80.64 197.58 81.11 196.25 81.11C194.92 81.11 193.94 80.61 193.78 79.47L191.84 79.97C192.09 81.88 193.91 82.81 196.22 82.81C198.68 82.81 200.3 81.79 200.3 79.91C200.3 77.83 198.47 77.22 196.28 76.58" fill="#FFEED9"></path>
    <path d="M211.7 72.31H209.75V82.66H211.7V72.31Z" fill="#FFEED9"></path>
    <path d="M229.14 79.63L223.73 72.31H221.75V82.66H223.69V75.36L229.11 82.66H231.08V72.31H229.14V79.63Z" fill="#FFEED9"></path>
    <path d="M245.77 74.01C247.17 74.01 248.31 74.94 248.75 76.3L250.64 75.71C249.96 73.64 248.11 72.15 245.76 72.15C242.79 72.15 240.53 74.44 240.53 77.48C240.53 80.52 242.79 82.82 245.76 82.82C248.11 82.82 249.96 81.33 250.64 79.27L248.75 78.66C248.31 80.02 247.17 80.95 245.77 80.95C243.94 80.95 242.58 79.46 242.58 77.48C242.58 75.5 243.94 74.01 245.77 74.01Z" fill="#FFEED9"></path>
    <path d="M259.9 82.66H267.57V80.86H261.83V78.34H266.47V76.6H261.83V74.11H267.57V72.31H259.9V82.66Z" fill="#FFEED9"></path>
    <path d="M392.99 43.68C392.86 43.64 392.83 43.47 392.94 43.39C393.53 42.96 394.79 41.91 394.47 40.96C394.14 40 392.71 39.7 392.43 38.78C392.15 37.57 394.2 36.5 393.34 34.61C392.49 32.71 388.37 33.07 386.56 31.26C387.99 30.46 389.1 28.03 386.66 26.5C386.87 27.5 386.46 28.05 386.03 28.36C385.68 28.61 385.18 28.44 385.07 28.02C383.8 23.47 386.97 14.36 375.76 7.3C373.29 -3.34 346.6 -2.44 339.03 9.56C339.03 9.56 349.97 3.42 357.83 6.78C341.89 12.64 343.29 21.34 343.29 21.34C343.29 21.34 353.19 13.53 360.24 17.26C327.84 36.99 343.72 53.47 343.72 53.47C343.72 53.47 343.91 48.55 347.24 46.4C350.57 44.24 352.84 47.46 352.82 51.71C352.8 55.95 354.42 58.88 354.42 58.88C348.87 62.99 346.06 58.95 346.06 58.95C343.01 68.55 363.65 66.96 362.23 54.99C365.73 59.87 362.48 63.93 362.48 63.93C362.48 63.93 371.25 60.81 368.79 51.61C353.22 48.67 357.49 33.28 367.19 39.72C372.56 36.06 368.33 24.79 370.27 19.1C370.38 18.78 370.64 18.54 370.96 18.47C372.32 18.14 375.98 17.97 377.19 25.07C378.69 33.85 374.58 33.66 382.94 40.54C389.93 46.3 385.85 53.26 384.34 55.37C384.1 55.7 384.32 56.16 384.73 56.18C387.14 56.3 392.63 54.91 393.85 51.25C394.38 49.65 393.66 49.02 393.65 48.04C393.63 46.78 394.8 46.58 394.8 45.88C394.8 44.45 393.59 43.89 392.97 43.7" fill="#FFEED9"></path>
    <path d="M336.66 52.72C336.66 52.72 327.05 43.24 327.93 29.64C328.68 18.03 336.27 11.53 336.27 11.53C323.84 17.15 321.16 30.85 324.18 40.57C326.47 47.95 332.71 52.47 336.66 52.72Z" fill="#FFEED9"></path>
    <path d="M362.34 68.39C354.42 68.53 346.35 70.34 343.81 65.19C340.9 59.29 347.96 56.65 348.96 52.72C349.96 48.79 346.68 47.92 345.86 51.49C345.52 52.96 345.37 54.4 345.2 55.43C345.11 55.95 344.45 56.15 344.1 55.75C341.78 53.1 339.12 56.23 339.12 56.23C339.12 56.23 336.65 52.72 330.09 54.75C332.11 57.3 330.3 60.65 333.96 64C333.96 64 337.18 58.31 342.21 58.38C339.99 59.54 334.98 66.81 339.76 73.55C346.78 83.45 361.37 70.72 366.92 74.11C360.64 73.76 353.9 82.49 343.63 80.33C354.42 89.53 368.3 69.88 380.03 82.11C380.03 70.19 370.38 68.26 362.34 68.4" fill="#FFEED9"></path>
    <path d="M342.69 84.43C328.27 79.23 332.72 66.33 333.3 65.36C330.14 66.59 322.98 79.15 336.18 86.93C346.28 92.88 358.2 84.55 365.05 85.72C359.64 82.09 350.67 87.31 342.69 84.44" fill="#FFEED9"></path>
  </g>
  <g clip-path="url(#clip0_121_2122)">
    <path d="M656.079 103.964C655.01 101.954 653.456 100.393 651.482 99.3795C649.566 98.4182 647.34 97.923 644.869 97.923C642.398 97.923 640.184 98.4066 638.303 99.3678C636.264 100.376 634.716 101.931 633.688 103.964C632.719 105.834 632.216 108.025 632.216 110.53C632.216 113.035 632.73 115.255 633.723 117.13C634.722 119.129 636.258 120.667 638.274 121.692C640.172 122.653 642.398 123.137 644.869 123.137C647.34 123.137 649.583 122.647 651.482 121.674C653.456 120.667 654.992 119.129 656.044 117.13C657.019 115.231 657.504 113.006 657.504 110.53C657.504 108.054 657.031 105.858 656.073 103.964H656.079Z" fill="white" stroke="#BA141A" stroke-width="0.75" stroke-linecap="round" stroke-linejoin="round"></path>
    <path d="M644.892 109.662C645.436 109.406 645.938 109.103 646.394 108.701C646.838 108.304 647.054 107.891 647.054 107.506C647.054 107.122 646.884 106.79 646.534 106.58C646.183 106.376 645.763 106.271 645.313 106.271C644.811 106.271 644.431 106.341 644.15 106.51C643.864 106.662 643.648 106.93 643.514 107.367C643.368 107.78 643.303 108.386 643.303 109.202C643.303 109.773 643.473 110.058 643.794 110.058C644.01 110.058 644.361 109.918 644.898 109.656M645.979 104.582C647.422 104.582 648.415 104.832 648.976 105.339C649.548 105.858 649.823 106.487 649.823 107.221C649.823 107.71 649.717 108.13 649.472 108.503C649.238 108.893 648.976 109.202 648.724 109.44C648.415 109.668 648.111 109.895 647.772 110.116C647.416 110.338 647.246 110.512 647.246 110.577C647.246 110.611 647.544 110.944 648.123 111.573C648.724 112.214 649.215 112.872 649.671 113.664C650.08 114.433 650.302 115.26 650.302 116.158C650.302 116.233 650.278 116.274 650.231 116.309C650.173 116.338 650.08 116.338 649.922 116.338H647.661C647.311 116.338 647.089 116.28 647.054 116.158C646.984 115.511 646.814 114.818 646.551 114.089C646.294 113.373 646.037 112.808 645.757 112.371C645.441 111.911 645.214 111.678 645.044 111.678C644.746 111.678 644.425 111.823 644.051 112.103C643.648 112.388 643.473 112.697 643.473 113.041C643.473 113.489 643.56 114.107 643.747 114.922C643.934 115.756 644.022 116.152 644.022 116.152C644.022 116.227 643.969 116.268 643.888 116.303C643.817 116.332 643.677 116.332 643.49 116.332H641.358C641.171 116.332 641.019 116.332 640.949 116.303C640.891 116.274 640.815 116.198 640.774 116.076C640.692 115.895 640.651 115.505 640.581 114.858C640.534 114.218 640.494 113.518 640.459 112.715C640.441 111.934 640.441 111.468 640.441 111.305L640.581 107.116C640.692 106.015 640.815 105.339 640.949 105.03C641.019 104.861 641.095 104.745 641.189 104.669C641.288 104.599 641.399 104.576 641.574 104.576H645.973L645.979 104.582ZM648.222 117.911C649.215 117.562 650.039 117.026 650.722 116.344C651.411 115.668 651.937 114.829 652.311 113.851C652.667 112.86 652.854 111.747 652.854 110.536C652.854 109.324 652.673 108.2 652.311 107.221C651.955 106.225 651.435 105.397 650.751 104.733C650.068 104.046 649.215 103.516 648.245 103.178C647.252 102.817 646.148 102.624 644.921 102.624C643.695 102.624 642.579 102.817 641.598 103.178C640.605 103.516 639.781 104.058 639.092 104.745C638.402 105.421 637.894 106.248 637.532 107.221C637.181 108.2 636.989 109.306 636.989 110.536C636.989 111.765 637.187 112.86 637.532 113.851C637.894 114.818 638.402 115.668 639.092 116.344C639.781 117.02 640.622 117.556 641.598 117.911C642.579 118.261 643.689 118.441 644.921 118.441C646.154 118.441 647.252 118.261 648.222 117.911ZM639.425 119.501C637.9 118.727 636.726 117.556 635.972 116.018C635.154 114.48 634.751 112.68 634.751 110.536C634.751 108.392 635.149 106.58 635.972 105.06C636.726 103.516 637.9 102.345 639.425 101.57C640.949 100.795 642.772 100.387 644.921 100.387C647.071 100.387 648.876 100.795 650.418 101.57C651.955 102.356 653.105 103.516 653.912 105.06C654.689 106.574 655.086 108.386 655.086 110.536C655.086 112.685 654.689 114.48 653.912 116.018C653.105 117.556 651.955 118.692 650.418 119.472C648.882 120.27 647.077 120.667 644.921 120.667C642.766 120.667 640.955 120.27 639.425 119.501Z" fill="#BA141A"></path>
    <path d="M770.287 182.775C772.279 182.547 774.288 182.402 776.268 182.076C777.857 181.819 779.44 181.435 780.977 180.957C783.67 180.118 786.234 178.965 788.623 177.444C792.683 174.863 795.954 171.49 798.484 167.43C799.471 165.839 800.295 164.126 800.82 162.309C800.879 162.111 800.99 161.93 801.13 161.627C801.866 162.07 802.573 162.484 803.274 162.909C805.511 164.284 807.924 165.292 810.477 165.828C812.836 166.323 815.272 166.422 817.638 165.863C819.578 165.402 821.365 164.511 822.633 162.874C824.566 160.369 824.555 156.932 822.206 154.549C820.705 153.028 818.865 152.125 816.92 151.438C814.495 150.582 812.001 149.929 809.577 149.084C807.69 148.426 805.663 148.181 803.887 147.203C803.835 147.174 803.776 147.156 803.718 147.139C802.474 146.777 802.322 146.527 802.439 145.257C802.491 144.639 802.427 144.016 802.45 143.399C802.479 142.595 802.573 141.785 802.573 140.981C802.579 129.947 802.573 118.907 802.573 107.873C802.573 107.635 802.59 107.39 802.573 107.151C802.532 106.615 802.736 106.265 803.227 105.992C805.435 104.774 807.737 103.848 810.202 103.236C813.631 102.391 817.095 102.316 820.577 102.485C822.393 102.572 824.198 102.927 825.992 103.254C827.814 103.586 829.654 103.894 831.407 104.465C834.018 105.316 836.565 106.376 839.123 107.372C839.737 107.611 840.315 107.92 840.899 108.223C841.203 108.38 841.478 108.607 841.811 108.835C839.123 114.025 836.477 119.134 833.79 124.331C833.019 123.807 832.376 123.381 831.746 122.939C829.456 121.348 826.938 120.224 824.239 119.63C822.095 119.152 819.852 119.024 817.714 119.606C815.477 120.212 813.438 121.255 812.498 123.597C811.651 125.7 812.071 127.599 813.549 129.131C814.875 130.506 816.523 131.334 818.31 131.904C821.301 132.86 824.309 133.757 827.294 134.724C830.811 135.86 834.193 137.287 837.19 139.495C840.146 141.668 842.436 144.354 843.662 147.884C844.217 149.481 844.468 151.106 844.755 152.755C845.286 155.836 844.895 158.872 844.41 161.866C843.481 167.616 840.958 172.58 836.325 176.326C834.047 178.166 831.541 179.605 828.766 180.561C827.183 181.103 825.6 181.679 823.976 182.046C820.933 182.745 817.837 183.06 814.7 183.054C801.142 183.019 787.578 183.031 774.019 183.008C772.793 183.008 771.56 182.914 770.333 182.868C770.322 182.833 770.31 182.798 770.298 182.763L770.287 182.775Z" fill="#BA141A"></path>
    <path d="M782.805 104.36C782.846 104.827 782.899 105.176 782.904 105.526C782.904 118.983 782.916 132.446 782.904 145.904C782.904 147.517 782.893 149.149 782.712 150.751C782.425 153.267 782.186 155.807 781.234 158.196C780.387 160.316 778.938 161.965 777.069 163.229C773.926 165.356 770.404 165.81 766.735 165.292C763.341 164.814 760.52 163.229 758.347 160.561C757.429 159.437 756.869 158.126 756.384 156.763C755.735 154.945 755.846 153.046 755.695 151.176C755.56 149.597 755.537 148.007 755.537 146.416C755.525 132.807 755.531 119.199 755.531 105.59C755.531 105.38 755.531 105.17 755.537 104.961C755.549 104.559 755.753 104.36 756.162 104.366C756.372 104.366 756.582 104.366 756.793 104.366C765.088 104.366 773.383 104.366 781.684 104.366C782.034 104.366 782.39 104.366 782.817 104.366L782.805 104.36Z" fill="#BA141A"></path>
    <path d="M781.023 85.8464C779.493 83.586 777.951 81.3372 776.426 79.0769C774.218 75.8086 772.016 72.5346 769.831 69.2547C769.58 68.8819 769.305 68.8003 768.92 68.8994C768.686 68.9576 768.452 69.0217 768.225 69.0916C766.653 69.5868 765.076 70.0761 763.505 70.5772C761.933 71.0782 760.35 71.5559 758.791 72.086C757.389 72.5637 756.004 73.0939 754.614 73.6065C752.861 74.2532 751.097 74.8649 749.368 75.564C747.108 76.4786 744.864 77.4398 742.633 78.4244C740.945 79.1701 739.297 79.9915 737.633 80.7838C736.663 81.2499 735.693 81.7217 734.729 82.1995C733.894 82.6131 733.059 83.0209 732.241 83.4578C731.359 83.9297 730.488 84.4365 729.612 84.9201C728.502 85.5318 727.363 86.0852 726.282 86.7435C724.057 88.1009 721.843 89.4816 719.658 90.9089C715.499 93.6179 711.544 96.6123 707.771 99.8281C704.377 102.723 701.152 105.799 698.155 109.108C695.877 111.625 693.622 114.171 691.689 116.967C689.96 119.467 688.248 121.983 686.671 124.576C685.333 126.778 684.147 129.079 682.997 131.386C682.126 133.134 681.396 134.957 680.631 136.757C680.169 137.847 679.755 138.954 679.281 140.154C678.662 141.901 679.258 139.862 679.281 139.775C679.644 138.511 679.982 137.247 680.38 135.994C680.882 134.427 681.414 132.866 681.957 131.316C682.57 129.557 683.154 127.786 683.861 126.061C684.883 123.562 685.935 121.074 687.092 118.639C688.353 115.989 689.703 113.373 691.105 110.786C692.805 107.652 694.744 104.658 696.835 101.768C699.563 98.0046 702.525 94.4393 705.773 91.1011C709.587 87.1804 713.653 83.5394 718.058 80.3003C720.961 78.1564 723.957 76.1232 727.018 74.2124C730.079 72.3016 733.251 70.5597 736.429 68.8411C738.766 67.5769 741.173 66.4351 743.579 65.3165C746.354 64.0291 749.146 62.7649 751.974 61.5997C755.029 60.3414 758.13 59.217 761.209 58.0227C761.454 57.9295 761.676 57.7548 761.939 57.5975C761.022 56.2168 760.175 54.9235 759.305 53.6418C756.641 49.6978 753.965 45.7654 751.302 41.8214C750.636 40.8427 750.642 40.8252 749.578 41.402C745.963 43.3711 742.399 45.4275 738.929 47.6588C734.449 50.5425 730.155 53.6709 726.043 57.0382C722.818 59.6772 719.734 62.4794 716.784 65.4214C714.103 68.0954 711.503 70.8393 709.067 73.7347C706.649 76.6068 704.342 79.5662 702.163 82.6306C699.61 86.2192 697.227 89.9185 695.042 93.7344C693.722 96.0355 692.466 98.3775 691.274 100.749C690.129 103.032 689.078 105.368 688.044 107.71C687.203 109.609 686.42 111.538 685.66 113.472C685.111 114.87 684.626 116.297 684.13 117.719C683.797 118.663 683.481 119.618 683.166 120.568C682.78 121.721 682.383 122.875 682.033 124.04C681.676 125.228 681.361 126.428 681.046 127.628C680.537 129.539 680.006 131.45 679.544 133.373C679.147 135.045 678.82 136.734 678.481 138.418C678.218 139.734 677.967 141.051 677.716 142.367C677.552 143.445 677.126 146.987 679.316 142.466C679.363 142.367 679.404 142.298 679.451 142.21C680.093 140.777 680.759 139.361 681.472 137.963C683.16 134.648 685.152 131.52 687.354 128.537C689.627 125.45 692.139 122.566 694.89 119.869C697.84 116.979 700.843 114.159 704.184 111.736C706.684 109.924 709.237 108.182 711.854 106.545C714.103 105.135 716.434 103.842 718.794 102.63C721.37 101.314 724.004 100.084 726.656 98.9367C729.291 97.7949 731.966 96.7404 734.659 95.7501C736.675 95.0102 738.742 94.3927 740.804 93.7752C743.211 93.0586 745.63 92.3886 748.048 91.7303C749.596 91.3109 751.15 90.9089 752.71 90.5652C754.322 90.2098 755.946 89.9244 757.57 89.6214C759.287 89.3068 761.01 89.0039 762.728 88.7068C763.084 88.6427 763.44 88.6019 763.797 88.5495C765.099 88.3456 766.396 88.1126 767.699 87.9436C769.288 87.7339 770.888 87.5824 772.483 87.4076C773.482 87.297 774.481 87.1571 775.486 87.0814C776.753 86.9882 778.027 86.9591 779.3 86.8659C779.966 86.8134 780.626 86.6794 781.415 86.5629C781.24 86.2716 781.134 86.0619 781 85.8697L781.023 85.8464Z" fill="#BA141A"></path>
    <path d="M761.963 104.477C761.203 104.425 760.444 104.32 759.684 104.32C757.885 104.326 756.08 104.349 754.281 104.43C751.471 104.553 748.661 104.663 745.863 104.891C743.521 105.083 741.184 105.409 738.853 105.724C737.522 105.904 736.201 106.155 734.881 106.423C732.58 106.895 730.278 107.361 727.994 107.92C726.277 108.345 724.577 108.864 722.9 109.429C720.902 110.093 718.928 110.833 716.953 111.567C714.05 112.65 711.276 114.002 708.548 115.47C705.866 116.915 703.273 118.505 700.784 120.265C697.484 122.595 694.405 125.182 691.543 128.025C688.61 130.932 685.952 134.072 683.557 137.439C681.834 139.862 680.251 142.367 678.826 144.966C678.411 145.723 678.008 146.486 677.599 147.249C677.599 147.249 677.412 147.71 677.062 147.785C677.015 147.785 676.664 148.036 676.805 146.422C676.805 146.422 676.805 146.405 676.805 146.399C676.805 146.387 676.805 146.381 676.805 146.37C676.939 144.36 677.062 142.344 677.219 140.334C677.365 138.447 677.482 136.559 677.716 134.683C678.066 131.928 678.51 129.184 678.919 126.44C679.054 125.543 679.217 124.646 679.375 123.754C679.696 121.989 680 120.218 680.356 118.465C680.713 116.728 681.121 115.01 681.53 113.285C681.916 111.654 682.301 110.029 682.722 108.404C683.014 107.268 683.347 106.143 683.674 105.019C684.305 102.863 684.918 100.696 685.602 98.5522C686.209 96.6647 686.887 94.7947 687.571 92.9363C688.318 90.8973 689.06 88.8466 689.901 86.8426C690.789 84.7278 691.753 82.6422 692.77 80.5857C693.739 78.6225 694.767 76.6825 695.86 74.7833C696.8 73.1521 697.857 71.585 698.868 69.9946C699.061 69.6917 699.148 69.4237 699.008 69.0625C698.728 68.3517 698.512 67.6119 698.237 66.8953C697.606 65.2175 696.94 63.5513 696.315 61.8735C695.544 59.7879 694.802 57.6907 694.037 55.5992C693.95 55.3546 693.792 55.1332 693.587 54.7603C692.986 56.3741 692.448 57.8014 691.917 59.2287C691.286 60.9356 690.655 62.6367 690.024 64.3436C689.358 66.138 688.686 67.9265 688.015 69.715C687.512 71.0607 687.01 72.4064 686.507 73.7463C686.163 74.661 685.801 75.5756 685.462 76.4961C684.959 77.8651 684.492 79.2458 683.984 80.609C683.493 81.9315 682.956 83.2364 682.465 84.5589C681.659 86.7377 680.876 88.9223 680.07 91.1012C679.258 93.3033 678.44 95.4937 677.622 97.6959C677.12 99.0416 676.618 100.382 676.115 101.727C675.981 102.1 675.771 102.304 675.327 102.321C673.428 102.391 671.536 102.496 669.637 102.572C668.895 102.601 668.147 102.584 667.4 102.613C664.952 102.723 662.51 102.846 660.063 102.956C661.062 105.258 661.587 107.78 661.587 110.542C661.587 113.687 660.945 116.536 659.671 119.006C658.193 121.814 656.061 123.929 653.322 125.327C652.93 125.531 652.51 125.688 652.095 125.857C653.62 127.052 655.144 128.246 656.669 129.446C659.251 131.479 661.815 133.53 664.397 135.557C664.759 135.843 664.911 136.099 664.759 136.583C664.269 138.155 663.825 139.746 663.381 141.336C662.896 143.09 662.434 144.849 661.95 146.603C661.576 147.954 661.161 149.294 660.781 150.646C660.098 153.087 659.426 155.534 658.743 157.975C658.275 159.635 657.779 161.284 657.317 162.944C656.54 165.734 655.787 168.525 655.004 171.315C654.496 173.133 653.958 174.945 653.438 176.768C652.732 179.256 652.036 181.743 651.335 184.231C651.289 184.4 651.283 184.586 651.242 184.872C651.511 184.738 651.686 184.668 651.838 184.569C653.333 183.573 654.823 182.565 656.324 181.569C659.8 179.256 663.276 176.949 666.751 174.642C669.906 172.545 673.066 170.459 676.226 168.362C678.504 166.853 680.783 165.344 683.061 163.824C684.918 162.589 686.759 161.33 688.616 160.095C690.112 159.099 691.63 158.126 693.12 157.124C693.447 156.903 693.722 156.891 694.037 157.101C695.311 157.951 696.584 158.79 697.857 159.635C700.638 161.493 703.419 163.352 706.205 165.21C709.132 167.162 712.058 169.102 714.985 171.047C717.853 172.952 720.721 174.863 723.589 176.768C726.995 179.029 730.407 181.289 733.812 183.549C734.525 184.021 735.237 184.482 736.049 185.006C736.049 184.726 736.085 184.563 736.049 184.417C735.716 183.171 735.372 181.93 735.021 180.689C734.531 178.97 734.011 177.258 733.526 175.533C733.029 173.762 732.562 171.985 732.071 170.214C731.528 168.263 730.973 166.311 730.418 164.36C730.021 162.961 729.595 161.569 729.203 160.165C728.823 158.808 728.479 157.444 728.105 156.087C727.743 154.776 727.363 153.471 726.995 152.166C726.633 150.879 726.288 149.585 725.926 148.298C725.564 147.011 725.184 145.735 724.822 144.447C724.536 143.439 724.255 142.426 723.969 141.418C723.87 141.074 723.665 141.033 723.362 141.191C720.324 142.775 717.286 144.348 714.255 145.927C711.328 147.453 708.396 148.98 705.469 150.506C702.262 152.178 699.055 153.844 695.848 155.51C695.749 155.563 695.626 155.563 695.416 155.615C695.533 155.458 695.562 155.388 695.614 155.353C697.355 154.077 699.096 152.807 700.843 151.537L753.522 111.41C755.969 109.481 758.411 107.541 760.853 105.607C761.25 105.293 761.624 104.955 762.009 104.628C761.986 104.582 761.963 104.529 761.939 104.477H761.963Z" fill="#FFEED9"></path>
  </g>
  <defs>
    <clipPath id="clip0_121_2122">
      <rect width="213" height="144" fill="white" transform="translate(632 41)"></rect>
    </clipPath>
  </defs>
</svg>
