<?xml version="1.0" encoding="UTF-8"?>
<svg xmlns="http://www.w3.org/2000/svg" width="159" height="46" viewBox="0 0 159 46" fill="none">
  <path d="M85.354 34.9497C85.2511 34.9497 85.163 34.8714 85.1532 34.7685C84.6193 28.7416 87.3058 28.2273 88.4593 28.2322C89.6226 28.2395 90.4601 29.2632 90.5507 30.5171C90.6413 31.7563 90.2936 34.8885 85.3515 34.9497M96.7295 31.2493C96.5262 26.2852 91.8242 24.8673 87.8373 25.0485C81.3426 25.3424 78.7589 30.1791 78.7295 35.1236V35.1407C78.7001 40.0852 81.2299 44.9465 87.7197 45.2991C97.6258 45.3457 97.6871 38.9465 95.2895 38.011C95.1891 37.9718 95.074 38.0085 95.0201 38.0967C94.6969 38.6452 93.5924 41.2069 90.3597 41.2069C87.1271 41.2069 86.0152 38.7114 85.7336 37.8787C85.6895 37.7489 85.785 37.6191 85.9222 37.624C90.3989 37.7489 96.9426 36.4436 96.7271 31.2469" fill="#CE090F"></path>
  <path d="M116.165 32.6918C116.165 24.135 108.142 23.8583 103.876 26.2754C103.824 26.3048 103.766 26.3097 103.709 26.2852C102.441 25.7514 100.469 25.1489 98.39 25.1122C98.2798 25.1122 98.1892 25.2003 98.1892 25.3105V44.5693C98.1892 44.6771 98.2774 44.7652 98.3851 44.7652H104.468C104.576 44.7652 104.664 44.6771 104.664 44.5693V29.8412C104.664 29.7775 104.694 29.7163 104.745 29.6795C106.393 28.5163 109.67 28.8052 109.67 32.4591V32.3048V41.6428C109.67 43.3595 111.076 44.7652 112.792 44.7652H116.887C117.034 44.7652 117.125 44.611 117.059 44.4812C116.471 43.3179 116.162 42.0322 116.162 40.7269V32.6942L116.165 32.6918Z" fill="#CE090F"></path>
  <path d="M42.5825 41.5546C41.5074 41.5546 40.665 40.6093 40.665 39.4118C40.665 37.7391 41.8405 34.8003 46.2291 34.9375C46.3344 34.9399 46.4201 35.0281 46.4201 35.1334V36.6983C46.4127 39.9946 44.3311 41.5522 42.5801 41.5522M52.7115 32.7163C52.7115 28.2077 49.4568 25.0069 43.6527 25.0069C36.3964 25.0069 35.5074 28.8567 36.2372 31.0069C36.2837 31.1416 36.4552 31.1856 36.558 31.0852C37.4764 30.184 38.838 29.3514 40.7433 29.1358C44.625 28.6999 46.0282 30.8379 46.3319 31.9571C46.3662 32.0844 46.2609 32.2044 46.1287 32.1971C41.4487 31.8787 34.2119 33.6199 34.2119 39.6861C34.2119 44.3048 39.1613 45.2746 41.2405 45.2746H41.2968C43.5817 45.2746 45.536 44.4812 46.9711 43.3326C47.0642 43.2591 47.2013 43.2763 47.2625 43.3767C47.7597 44.2069 48.656 44.7603 49.6772 44.7603H53.3776C53.5246 44.7603 53.6152 44.6085 53.5491 44.4763C52.9882 43.335 52.6968 42.0812 52.6993 40.8077L52.7115 32.7114V32.7163Z" fill="#CE090F"></path>
  <path d="M145.765 41.5546C144.69 41.5546 143.848 40.6093 143.848 39.4118C143.848 37.7391 145.023 34.8003 149.412 34.9375C149.517 34.9399 149.603 35.0281 149.603 35.1334V36.6983C149.593 39.9946 147.514 41.5522 145.763 41.5522M155.882 40.7783L155.894 32.7187C155.894 28.2101 152.64 25.0093 146.836 25.0093C139.579 25.0093 138.69 28.8591 139.42 31.0093C139.467 31.144 139.638 31.1881 139.741 31.0877C140.659 30.1865 142.021 29.3538 143.926 29.1383C147.808 28.7024 149.211 30.8403 149.515 31.9595C149.549 32.0869 149.444 32.2069 149.314 32.1995C144.634 31.8811 137.397 33.6224 137.397 39.6885C137.397 44.3073 142.347 45.2771 144.426 45.2771H144.482C146.767 45.2771 148.721 44.4836 150.156 43.335C150.249 43.2616 150.387 43.2787 150.448 43.3791C150.945 44.2093 151.841 44.7628 152.863 44.7628H156.565C156.71 44.7628 156.8 44.611 156.737 44.4812C156.176 43.3277 155.882 42.0616 155.885 40.7758" fill="#CE090F"></path>
  <path d="M60.301 26.2705C59.0324 25.7391 57.0683 25.1391 54.9965 25.1024C54.8863 25.1024 54.7957 25.1905 54.7957 25.3007V44.5669C54.7957 44.6746 54.8838 44.7628 54.9916 44.7628H61.9932C62.1401 44.7628 62.2308 44.6085 62.1646 44.4763C61.5793 43.3326 61.2732 42.0665 61.2732 40.7783V29.5032C61.2708 29.4322 61.3075 29.3636 61.3712 29.3293C62.6593 28.6436 64.5108 29.2191 64.5108 32.8265V32.8901H64.6895C67.1728 32.8363 69.3132 31.4036 69.3132 28.9277C69.3132 25.0534 64.0748 23.7334 60.4822 26.2509C60.4283 26.2877 60.3597 26.2975 60.301 26.273" fill="#CE090F"></path>
  <path d="M77.0201 19.5236C77.0201 18.1497 76.1801 17.1015 74.6324 16.8322C72.8789 16.5285 70.9858 17.0354 69.6511 17.8411C69.563 17.895 69.536 18.0077 69.585 18.0958C70.2144 19.2787 70.5426 20.5987 70.5426 21.9407V44.5669C70.5426 44.6746 70.6307 44.7628 70.7385 44.7628H77.7426C77.8871 44.7628 77.9826 44.6109 77.9164 44.4836C77.3287 43.335 77.0226 42.064 77.0226 40.7709V19.5236H77.0201Z" fill="#CE090F"></path>
  <path d="M32.7377 21.7032C32.7377 19.6999 33.3817 18.304 33.656 17.7995C33.7148 17.6893 33.656 17.5522 33.536 17.5203C32.0911 17.126 24.6046 15.3652 22.5524 20.5571C20.625 25.4403 18.2887 31.4012 17.625 33.0934C17.5613 33.2599 17.3262 33.2575 17.2626 33.091C16.5891 31.3252 14.1646 24.9799 12.4111 20.5571C10.3417 15.3358 2.56622 17.1285 1.08704 17.5228C0.96704 17.5546 0.908264 17.6918 0.969489 17.802C1.24867 18.3114 1.9001 19.7122 1.9001 21.7448L1.425 40.5701C1.425 41.9318 1.09194 43.2738 0.457652 44.4836C0.391529 44.611 0.48704 44.7652 0.631529 44.7652H5.40704C5.51235 44.7652 5.59806 44.682 5.60296 44.5767L6.21521 24.4999C6.22255 24.2869 6.51643 24.2379 6.59235 24.4363L13.2658 41.6722C13.2952 41.7481 13.3662 41.7971 13.447 41.7971H18.4013C18.4822 41.7971 18.5532 41.7481 18.5826 41.6746L25.4226 24.4167C25.5009 24.2183 25.7924 24.2697 25.7997 24.4828L26.4071 44.5791C26.4095 44.6844 26.4977 44.7677 26.603 44.7677H33.9891C34.1336 44.7677 34.2291 44.6134 34.163 44.4861C33.5238 43.2787 33.1883 41.9367 33.1883 40.575L32.7401 21.7105L32.7377 21.7032Z" fill="#CE090F"></path>
  <path d="M136.278 28.8812C136.278 24.5073 130.163 23.7334 128.569 27.1693C128.529 27.255 128.561 27.3579 128.637 27.4118C131.422 29.3881 129.629 32.5865 125.059 33.8379C124.934 33.8722 124.812 33.7767 124.812 33.6493V19.5285C124.812 18.1546 123.972 17.1065 122.419 16.8371C120.661 16.5309 118.768 17.0403 117.428 17.8436C117.34 17.8975 117.313 18.0101 117.36 18.1007C117.989 19.2836 118.32 20.6036 118.32 21.9456V44.5718C118.32 44.6795 118.408 44.7677 118.516 44.7677H124.618C124.726 44.7677 124.814 44.6795 124.814 44.5718V36.833C124.814 36.7399 124.88 36.6616 124.974 36.642C125.532 36.5293 126.068 36.4142 126.585 36.2918C126.673 36.2697 126.764 36.3138 126.803 36.3946L130.851 44.6575C130.883 44.7236 130.952 44.7677 131.027 44.7677H137.51C137.654 44.7677 137.75 44.6134 137.684 44.4836L132.558 34.362C132.512 34.2689 132.548 34.1563 132.639 34.1048C135.066 32.7334 136.285 31.0093 136.285 28.8836" fill="#CE090F"></path>
  <path d="M156.516 26.202V26.7383H156.928C157.114 26.7383 157.224 26.6061 157.224 26.4738C157.224 26.3269 157.116 26.202 156.928 26.202H156.516ZM156.952 25.9008C157.356 25.9008 157.56 26.1579 157.56 26.4763C157.56 26.7089 157.452 26.9122 157.234 27.0052L157.616 27.5342H157.227L156.884 27.0518H156.519V27.5342H156.176V25.9008H156.955H156.952ZM156.82 28.0779C157.582 28.0779 158.174 27.4852 158.174 26.7236C158.174 25.962 157.582 25.3693 156.82 25.3693C156.058 25.3693 155.466 25.9595 155.466 26.7236C155.466 27.4877 156.066 28.0779 156.82 28.0779ZM156.82 24.9652C157.792 24.9652 158.571 25.7514 158.571 26.7236C158.571 27.6959 157.785 28.482 156.82 28.482C155.855 28.482 155.069 27.6959 155.069 26.7236C155.069 25.7514 155.848 24.9652 156.82 24.9652Z" fill="#B62025"></path>
  <path d="M99.7442 18.4681C99.7442 17.9881 99.345 17.6942 98.8944 17.6942C98.478 17.6942 98.0103 17.9465 98.0103 18.5734V18.6248H98.4854V18.5856C98.4854 18.255 98.6764 18.1375 98.887 18.1375C99.0976 18.1375 99.2519 18.2673 99.2519 18.4852C99.2519 18.7032 99.0878 19.0387 98.0029 19.8958V20.2681H99.7613V19.8273H98.7768C99.4748 19.2567 99.7442 18.8673 99.7442 18.4705" fill="#FFEED9"></path>
  <path d="M103.251 17.6942C102.509 17.6942 101.956 18.2526 101.956 19.002C101.956 19.7514 102.509 20.3073 103.251 20.3073C103.993 20.3073 104.544 19.7489 104.544 19.002C104.544 18.255 103.991 17.6942 103.251 17.6942ZM103.251 19.8542C102.796 19.8542 102.455 19.4844 102.455 18.9995C102.455 18.5146 102.796 18.1497 103.251 18.1497C103.707 18.1497 104.045 18.5146 104.045 18.9995C104.045 19.4844 103.704 19.8542 103.251 19.8542Z" fill="#FFEED9"></path>
  <path d="M108.012 17.6942C107.27 17.6942 106.717 18.2526 106.717 19.002C106.717 19.7514 107.27 20.3073 108.012 20.3073C108.754 20.3073 109.305 19.7489 109.305 19.002C109.305 18.255 108.752 17.6942 108.012 17.6942ZM108.012 19.8542C107.557 19.8542 107.216 19.4844 107.216 18.9995C107.216 18.5146 107.557 18.1497 108.012 18.1497C108.468 18.1497 108.806 18.5146 108.806 18.9995C108.806 19.4844 108.465 19.8542 108.012 19.8542Z" fill="#FFEED9"></path>
  <path d="M112.682 18.9799C112.969 18.8452 113.094 18.6297 113.094 18.3824C113.094 17.9514 112.69 17.6942 112.259 17.6942C111.828 17.6942 111.431 17.9489 111.431 18.3775V18.4314H111.901V18.4142C111.901 18.233 112.068 18.1203 112.263 18.1203C112.445 18.1203 112.611 18.2207 112.611 18.4069C112.611 18.5807 112.445 18.784 111.957 18.784V19.2028C112.447 19.2028 112.68 19.3473 112.68 19.5579C112.68 19.7489 112.506 19.8689 112.254 19.8689C112.063 19.8689 111.84 19.7954 111.578 19.6656L111.375 20.0722C111.676 20.2338 111.979 20.3073 112.259 20.3073C112.797 20.3073 113.17 20.0281 113.17 19.5824C113.17 19.2812 112.988 19.0828 112.685 18.9775" fill="#FFEED9"></path>
  <path d="M48.5043 18.784C48.2007 18.6983 47.9411 18.6199 47.9411 18.3995C47.9411 18.2305 48.1003 18.113 48.4015 18.113C48.7272 18.113 48.9476 18.2403 48.9476 18.5073V18.5244H49.4227V18.4705C49.4227 17.9538 48.9696 17.6918 48.4064 17.6918C47.8431 17.6918 47.4513 17.966 47.4513 18.402C47.4513 18.8844 47.8603 19.0754 48.3549 19.215C48.6562 19.3032 48.999 19.3669 48.999 19.5995C48.999 19.7734 48.8251 19.8885 48.4994 19.8885C48.1737 19.8885 47.9337 19.766 47.8945 19.4869L47.4194 19.6093C47.4807 20.0771 47.9264 20.3048 48.4921 20.3048C49.0945 20.3048 49.4913 20.055 49.4913 19.5946C49.4913 19.0852 49.0431 18.9358 48.5068 18.7791" fill="#FFEED9"></path>
  <path d="M52.283 17.7334H51.8054V20.2681H52.283V17.7334Z" fill="#FFEED9"></path>
  <path d="M56.5539 19.5261L55.229 17.7334H54.7441V20.2681H55.2192V18.4803L56.5466 20.2681H57.029V17.7334H56.5539V19.5261Z" fill="#FFEED9"></path>
  <path d="M60.6268 18.1497C60.9696 18.1497 61.2488 18.3775 61.3566 18.7105L61.8194 18.5661C61.6529 18.0591 61.1998 17.6942 60.6243 17.6942C59.897 17.6942 59.3435 18.255 59.3435 18.9995C59.3435 19.744 59.897 20.3073 60.6243 20.3073C61.1998 20.3073 61.6529 19.9424 61.8194 19.4379L61.3566 19.2885C61.2488 19.6216 60.9696 19.8493 60.6268 19.8493C60.1786 19.8493 59.8455 19.4844 59.8455 18.9995C59.8455 18.5146 60.1786 18.1497 60.6268 18.1497Z" fill="#FFEED9"></path>
  <path d="M64.0869 20.2681H65.9653V19.8273H64.5596V19.2101H65.6959V18.784H64.5596V18.1742H65.9653V17.7334H64.0869V20.2681Z" fill="#FFEED9"></path>
  <path d="M96.6808 10.722C96.6489 10.7122 96.6416 10.6705 96.6685 10.6509C96.813 10.5456 97.1216 10.2885 97.0432 10.0558C96.9624 9.82074 96.6122 9.74727 96.5436 9.52196C96.475 9.22564 96.9771 8.9636 96.7665 8.50074C96.5583 8.03543 95.5493 8.1236 95.1061 7.68033C95.4563 7.48441 95.7281 6.88931 95.1306 6.51462C95.182 6.75951 95.0816 6.89421 94.9763 6.97013C94.8906 7.03135 94.7681 6.98972 94.7412 6.88686C94.4302 5.77257 95.2065 3.54155 92.4612 1.81257C91.8563 -0.793144 85.3199 -0.572736 83.4661 2.36604C83.4661 2.36604 86.1452 0.862367 88.0701 1.68522C84.1665 3.12033 84.5093 5.25094 84.5093 5.25094C84.5093 5.25094 86.9338 3.33829 88.6604 4.25176C80.7257 9.0836 84.6146 13.1195 84.6146 13.1195C84.6146 13.1195 84.6612 11.9146 85.4767 11.3881C86.2922 10.8591 86.8481 11.6477 86.8432 12.6885C86.8383 13.7269 87.235 14.4444 87.235 14.4444C85.8759 15.4509 85.1877 14.4616 85.1877 14.4616C84.4408 16.8126 89.4955 16.4232 89.1477 13.4918C90.0048 14.6869 89.2089 15.6811 89.2089 15.6811C89.2089 15.6811 91.3567 14.9171 90.7542 12.664C86.9412 11.944 87.9869 8.17502 90.3624 9.75217C91.6775 8.85584 90.6416 6.09584 91.1167 4.70237C91.1436 4.624 91.2073 4.56523 91.2857 4.54808C91.6187 4.46727 92.515 4.42563 92.8114 6.16441C93.1787 8.31462 92.1722 8.26809 94.2195 9.95298C95.9314 11.3636 94.9322 13.0681 94.5624 13.5848C94.5036 13.6656 94.5575 13.7783 94.6579 13.7832C95.2481 13.8126 96.5926 13.4722 96.8914 12.5758C97.0212 12.184 96.8448 12.0297 96.8424 11.7897C96.8375 11.4811 97.124 11.4322 97.124 11.2607C97.124 10.9105 96.8277 10.7734 96.6759 10.7269" fill="#FFEED9"></path>
  <path d="M82.8855 12.9358C82.8855 12.9358 80.532 10.6142 80.7475 7.28358C80.9312 4.44032 82.79 2.84848 82.79 2.84848C79.7459 4.22481 79.0896 7.57991 79.8292 9.96032C80.39 11.7677 81.9181 12.8746 82.8855 12.9358Z" fill="#FFEED9"></path>
  <path d="M89.1743 16.7734C87.2347 16.8077 85.2584 17.2509 84.6364 15.9897C83.9237 14.5448 85.6527 13.8983 85.8976 12.9358C86.1425 11.9734 85.3392 11.7603 85.1384 12.6346C85.0551 12.9946 85.0184 13.3473 84.9768 13.5995C84.9547 13.7269 84.7931 13.7758 84.7074 13.6779C84.1392 13.0289 83.4878 13.7954 83.4878 13.7954C83.4878 13.7954 82.8829 12.9358 81.2764 13.433C81.7711 14.0575 81.3278 14.8779 82.2241 15.6983C82.2241 15.6983 83.0127 14.3048 84.2445 14.322C83.7009 14.606 82.4739 16.3865 83.6445 18.0371C85.3637 20.4616 88.9368 17.344 90.296 18.1742C88.758 18.0885 87.1074 20.2265 84.5923 19.6975C87.2347 21.9505 90.6339 17.1383 93.5066 20.1334C93.5066 17.2142 91.1433 16.7416 89.1743 16.7758" fill="#FFEED9"></path>
  <path d="M84.3621 20.7015C80.8306 19.4281 81.9204 16.2689 82.0625 16.0313C81.2886 16.3326 79.5351 19.4085 82.7678 21.3138C85.2412 22.7709 88.1604 20.7309 89.838 21.0175C88.5131 20.1285 86.3163 21.4069 84.3621 20.704" fill="#FFEED9"></path>
</svg>
